<svg fill="none" height="100%" width="100%" viewBox="0 0 500 500" xmlns:xlink="http://www.w3.org/1999/xlink" xmlns="http://www.w3.org/2000/svg"><g transform="matrix(1,0,0,1,249.477,340.258)" id="i0"><g id="i1"><path fill="#f3395a" d="M-76.069,31.138C-76.069,31.138,-76.069,-29.625,-76.069,-29.625C-76.069,-29.625,-66.901,-29.625,-66.901,-29.625C-66.901,-29.625,-66.901,23.246,-66.901,23.246C-66.901,23.246,-39.368,23.246,-39.368,23.246C-39.368,23.246,-39.368,31.138,-39.368,31.138C-39.368,31.138,-76.069,31.138,-76.069,31.138ZM-29.621,31.138C-29.621,31.138,-29.621,-14.435,-29.621,-14.435C-29.621,-14.435,-20.75,-14.435,-20.75,-14.435C-20.75,-14.435,-20.75,31.138,-20.75,31.138C-20.75,31.138,-29.621,31.138,-29.621,31.138ZM-25.141,-21.466C-26.684,-21.466,-28.009,-21.981,-29.117,-23.009C-30.205,-24.058,-30.749,-25.303,-30.749,-26.747C-30.749,-28.211,-30.205,-29.457,-29.117,-30.486C-28.009,-31.534,-26.684,-32.058,-25.141,-32.058C-23.598,-32.058,-22.283,-31.534,-21.195,-30.486C-20.087,-29.457,-19.534,-28.211,-19.534,-26.747C-19.534,-25.303,-20.087,-24.058,-21.195,-23.009C-22.283,-21.981,-23.598,-21.466,-25.141,-21.466ZM30.17,-14.435C30.17,-14.435,13.644,31.138,13.644,31.138C13.644,31.138,4.15,31.138,4.15,31.138C4.15,31.138,-12.406,-14.435,-12.406,-14.435C-12.406,-14.435,-2.882,-14.435,-2.882,-14.435C-2.882,-14.435,8.66,20.635,8.66,20.635C8.66,20.635,9.135,20.635,9.135,20.635C9.135,20.635,20.646,-14.435,20.646,-14.435C20.646,-14.435,30.17,-14.435,30.17,-14.435ZM56.517,32.058C52.027,32.058,48.16,31.098,44.916,29.18C41.692,27.241,39.2,24.522,37.439,21.021C35.698,17.5,34.828,13.376,34.828,8.649C34.828,3.981,35.698,-0.134,37.439,-3.694C39.2,-7.255,41.652,-10.033,44.797,-12.031C47.962,-14.029,51.661,-15.028,55.894,-15.028C58.465,-15.028,60.958,-14.602,63.371,-13.751C65.783,-12.901,67.949,-11.566,69.868,-9.747C71.787,-7.927,73.299,-5.563,74.407,-2.655C75.515,0.233,76.069,3.743,76.069,7.877C76.069,7.877,76.069,11.022,76.069,11.022C76.069,11.022,39.842,11.022,39.842,11.022C39.842,11.022,39.842,4.376,39.842,4.376C39.842,4.376,67.375,4.376,67.375,4.376C67.375,2.042,66.902,-0.025,65.952,-1.825C65.002,-3.644,63.667,-5.078,61.946,-6.127C60.245,-7.175,58.248,-7.699,55.953,-7.699C53.461,-7.699,51.286,-7.087,49.426,-5.86C47.587,-4.653,46.162,-3.072,45.153,-1.113C44.164,0.825,43.67,2.932,43.67,5.207C43.67,5.207,43.67,10.399,43.67,10.399C43.67,13.445,44.204,16.037,45.272,18.173C46.36,20.309,47.873,21.941,49.811,23.068C51.749,24.176,54.015,24.729,56.606,24.729C58.287,24.729,59.82,24.493,61.205,24.018C62.589,23.523,63.785,22.791,64.794,21.822C65.803,20.853,66.575,19.656,67.109,18.232C67.109,18.232,75.505,19.745,75.505,19.745C74.833,22.217,73.627,24.383,71.886,26.243C70.165,28.082,67.999,29.516,65.388,30.545C62.797,31.554,59.839,32.058,56.517,32.058Z" /></g></g><g transform="matrix(1,0,0,1,0,0)" id="i2"><g opacity="0"><animate repeatCount="indefinite" attributeName="opacity" dur="1.333s" begin="0s" fill="freeze" values="0; 0; 1; 0; 0" keyTimes="0; 0.275; 0.525; 0.75; 1" keySplines="0 0 1 1; 0.28 0 0.66 1; 0.28 0 0.66 1; 0 0 1 1" calcMode="spline" /><g id="i3" transform="translate(187.592,176.494)"><path fill="#f24c70" d="M1.355,46C-18.981,18.913,-18.981,-18.913,1.355,-46C3.662,-49.069,8.038,-49.702,11.114,-47.388C14.19,-45.074,14.81,-40.705,12.503,-37.629C-4.137,-15.476,-4.137,15.477,12.503,37.629C14.81,40.705,14.19,45.075,11.114,47.389C8.051,49.687,3.673,49.091,1.355,46Z" /></g></g><g opacity="0"><animate repeatCount="indefinite" attributeName="opacity" dur="1.333s" begin="0s" fill="freeze" values="0; 0; 1; 0; 0" keyTimes="0; 0.275; 0.525; 0.75; 1" keySplines="0 0 1 1; 0.28 0 0.66 1; 0.28 0 0.66 1; 0 0 1 1" calcMode="spline" /><g id="i4" transform="translate(312.97,176.495)"><path fill="#f24c70" d="M-11.114,47.387C-14.19,45.073,-14.81,40.704,-12.503,37.628C4.137,15.475,4.137,-15.478,-12.503,-37.63C-14.81,-40.706,-14.19,-45.076,-11.114,-47.39C-8.038,-49.697,-3.655,-49.07,-1.355,-46.001C18.981,-18.914,18.981,18.912,-1.355,45.999C-3.669,49.085,-8.045,49.689,-11.114,47.387Z" /></g></g><g opacity="0"><animate repeatCount="indefinite" attributeName="opacity" dur="1.333s" begin="0s" fill="freeze" values="0; 0; 1; 1; 0; 0" keyTimes="0; 0.125; 0.4; 0.625; 0.875; 1" keySplines="0 0 1 1; 0.28 0 0.66 1; 0.28 0 0.66 1; 0.28 0 0.66 1; 0 0 1 1" calcMode="spline" /><g id="i5" transform="translate(213.764,176.499)"><path fill="#f24c70" d="M0.147,32.521C-16.459,13.982,-16.459,-13.989,0.147,-32.528C2.719,-35.393,7.143,-35.625,9.988,-33.073C12.853,-30.507,13.099,-26.096,10.533,-23.231C-1.323,-9.987,-1.323,9.98,10.533,23.224C13.099,26.09,12.853,30.5,9.988,33.066C7.133,35.628,2.715,35.395,0.147,32.521Z" /></g></g><g opacity="0"><animate repeatCount="indefinite" attributeName="opacity" dur="1.333s" begin="0s" fill="freeze" values="0; 0; 1; 1; 0; 0" keyTimes="0; 0.125; 0.4; 0.625; 0.875; 1" keySplines="0 0 1 1; 0.28 0 0.66 1; 0.28 0 0.66 1; 0.28 0 0.66 1; 0 0 1 1" calcMode="spline" /><g id="i6" transform="translate(286.787,176.495)"><path fill="#f24c70" d="M-9.988,33.068C-12.853,30.502,-13.099,26.093,-10.533,23.227C1.323,9.983,1.323,-9.985,-10.533,-23.229C-13.099,-26.094,-12.853,-30.504,-9.988,-33.07C-7.129,-35.629,-2.713,-35.397,-0.147,-32.525C16.459,-13.986,16.459,13.985,-0.147,32.524C-2.714,35.397,-7.132,35.631,-9.988,33.068Z" /></g></g><g opacity="0"><animate repeatCount="indefinite" attributeName="opacity" dur="1.333s" begin="0s" fill="freeze" values="0; 1; 1; 0" keyTimes="0; 0.275; 0.75; 1" keySplines="0.28 0 0.66 1; 0.28 0 0.66 1; 0.28 0 0.66 1" calcMode="spline" /><g id="i1" transform="translate(250.281,176.496)"><path fill="#f24c70" d="M0,20.907C-11.528,20.907,-20.907,11.528,-20.907,0C-20.907,-11.529,-11.528,-20.907,0,-20.907C11.529,-20.907,20.907,-11.529,20.907,0C20.907,11.528,11.529,20.907,0,20.907Z" /></g></g></g></svg>